<svg id="Layer_1" data-name="Layer 1" xmlns="http://www.w3.org/2000/svg" viewBox="0 0 887.86 112.14"><defs><style>.cls-1{fill:#FFFFFF;}.cls-2{fill:#FFFFFF;}</style></defs><title>one-man-video-logo</title><path class="cls-1" d="M167.37,509.26c0-1.25-.05-2.77-.14-4.55s-.17-3.58-.22-5.41-.12-3.54-.22-5.13-.14-2.82-.14-3.68h8.66q.15,3.75.22,7.22a23,23,0,0,0,.36,4.47h.44a23.44,23.44,0,0,1,8.66-9.46,25.33,25.33,0,0,1,14.16-4q7.78,0,12.7,2.46a20.52,20.52,0,0,1,7.73,6.42,24.13,24.13,0,0,1,3.9,9.18,52.29,52.29,0,0,1,1.08,10.68v39.72H215.9V517.93a42.43,42.43,0,0,0-.72-7.87,21.12,21.12,0,0,0-2.53-6.86,13.17,13.17,0,0,0-5.06-4.84,17.21,17.21,0,0,0-8.44-1.81,24.79,24.79,0,0,0-9,1.66,19.51,19.51,0,0,0-7.37,5.06,24.39,24.39,0,0,0-4.91,8.52,36.45,36.45,0,0,0-1.8,12.06v33.36h-8.67Z" transform="translate(-73.11 -448.02)"/><path class="cls-1" d="M306.6,544.65a29.23,29.23,0,0,1-12.49,11,39.7,39.7,0,0,1-16.4,3.32,35.44,35.44,0,0,1-13.86-2.6,31.26,31.26,0,0,1-10.69-7.29,32.08,32.08,0,0,1-6.86-11.12,40.62,40.62,0,0,1-2.38-14.23,38.31,38.31,0,0,1,2.45-13.86,33.06,33.06,0,0,1,6.94-11,32.3,32.3,0,0,1,24-10,32.25,32.25,0,0,1,13.51,2.67,29.8,29.8,0,0,1,9.82,7.08,30.1,30.1,0,0,1,6,10,33.48,33.48,0,0,1,2,11.41V526h-56a29.33,29.33,0,0,0,1.09,7,24.6,24.6,0,0,0,4,8.3,25.09,25.09,0,0,0,7.73,6.94q4.83,2.88,12.49,2.89A27.85,27.85,0,0,0,290.71,548a23.23,23.23,0,0,0,9.54-8.67ZM300,518.22a19.75,19.75,0,0,0-1.81-8.38,22.29,22.29,0,0,0-4.91-6.86,23.42,23.42,0,0,0-7.37-4.7,23.78,23.78,0,0,0-9-1.73,22.12,22.12,0,0,0-11.77,2.89,25.87,25.87,0,0,0-7.44,6.64,26.5,26.5,0,0,0-3.9,7.3,19.41,19.41,0,0,0-1.16,4.84Z" transform="translate(-73.11 -448.02)"/><path class="cls-1" d="M328,509.26c0-1.25-.05-2.77-.15-4.55s-.17-3.58-.22-5.41-.12-3.54-.21-5.13-.15-2.82-.15-3.68h8.67c.09,2.5.17,4.91.22,7.22a21.39,21.39,0,0,0,.36,4.47h.43a23.4,23.4,0,0,1,8.67-9.46,25.29,25.29,0,0,1,14.15-4,22.64,22.64,0,0,1,12.13,3.4q5.49,3.39,7.95,11.05a21.58,21.58,0,0,1,9.46-11,26.94,26.94,0,0,1,13.21-3.47q7.8,0,12.71,2.46a20.6,20.6,0,0,1,7.73,6.42,24.45,24.45,0,0,1,3.9,9.18,52.29,52.29,0,0,1,1.08,10.68v39.72h-8.67V517.93a42.43,42.43,0,0,0-.72-7.87A20.67,20.67,0,0,0,416,503.2a13.07,13.07,0,0,0-5.05-4.84,17.25,17.25,0,0,0-8.45-1.81,19.82,19.82,0,0,0-10,2.24,17.43,17.43,0,0,0-6.14,5.71,23.22,23.22,0,0,0-3.18,7.51,33.57,33.57,0,0,0-.94,7.65v37.55h-8.66V517.06q0-9.24-3.4-14.88t-10.47-5.63a24.79,24.79,0,0,0-9,1.66,19.47,19.47,0,0,0-7.36,5.06,24.39,24.39,0,0,0-4.91,8.52,36.18,36.18,0,0,0-1.81,12.06v33.36H328Z" transform="translate(-73.11 -448.02)"/><path class="cls-1" d="M502.88,529.19c0,3.28,0,6.21.07,8.81s.12,5,.22,7.22.21,4.29.36,6.21.36,3.86.65,5.78h-8.09a62.2,62.2,0,0,1-.87-10.83h-.29a24.34,24.34,0,0,1-9.31,9.53q-5.56,3-14.08,3a34.1,34.1,0,0,1-8.53-1.08,22.36,22.36,0,0,1-7.51-3.47A17.83,17.83,0,0,1,448,539.16q0-7.65,3.9-12.13a24.2,24.2,0,0,1,9.61-6.72,45.48,45.48,0,0,1,12.13-2.89q6.42-.64,11.34-.65h10.11v-4q0-8.67-5.35-12.42t-13.43-3.76a30.48,30.48,0,0,0-20.36,7.51l-5.06-5.92a30.79,30.79,0,0,1,11.85-7,42.42,42.42,0,0,1,13.57-2.39q12.13,0,19.36,5.71t7.22,18.41Zm-17.33-5.49a76.23,76.23,0,0,0-10.62.73,37.16,37.16,0,0,0-9.24,2.45,17.31,17.31,0,0,0-6.58,4.62,10.81,10.81,0,0,0-2.45,7.22,10.7,10.7,0,0,0,1.37,5.42,12.08,12.08,0,0,0,3.54,3.9,16.65,16.65,0,0,0,4.84,2.31,18.85,18.85,0,0,0,5.41.8,27.75,27.75,0,0,0,11.41-2,19.2,19.2,0,0,0,7.15-5.27,18.41,18.41,0,0,0,3.69-7.36,35,35,0,0,0,1-8.31V523.7Z" transform="translate(-73.11 -448.02)"/><path class="cls-1" d="M526,509.26c0-1.25,0-2.77-.15-4.55s-.17-3.58-.22-5.41-.12-3.54-.21-5.13-.15-2.82-.15-3.68h8.67c.09,2.5.17,4.91.22,7.22a21.39,21.39,0,0,0,.36,4.47h.43a23.4,23.4,0,0,1,8.67-9.46,25.29,25.29,0,0,1,14.15-4q7.8,0,12.71,2.46a20.6,20.6,0,0,1,7.73,6.42,24.45,24.45,0,0,1,3.9,9.18,52.29,52.29,0,0,1,1.08,10.68v39.72h-8.67V517.93a42.43,42.43,0,0,0-.72-7.87,20.67,20.67,0,0,0-2.53-6.86,13.07,13.07,0,0,0-5-4.84,17.25,17.25,0,0,0-8.45-1.81,24.79,24.79,0,0,0-9,1.66,19.47,19.47,0,0,0-7.36,5.06,24.23,24.23,0,0,0-4.91,8.52,36.18,36.18,0,0,0-1.81,12.06v33.36H526Z" transform="translate(-73.11 -448.02)"/><polyline class="cls-1" points="32.72 62.39 32.72 88.32 46.22 74.83"/><path class="cls-1" d="M615.06,490.48h9.83l22.24,57.34,21.66-57.34h8.81l-26.28,66.73h-9Z" transform="translate(-73.11 -448.02)"/><path class="cls-1" d="M690.6,464.05a6.4,6.4,0,1,1,1.88,4.63A6.3,6.3,0,0,1,690.6,464.05Zm2.17,26.43h8.66v66.73h-8.66Z" transform="translate(-73.11 -448.02)"/><path class="cls-1" d="M784.33,545.51h-.28a22.69,22.69,0,0,1-5.06,6,30.21,30.21,0,0,1-6.57,4.18,32.81,32.81,0,0,1-7.44,2.46,38.23,38.23,0,0,1-7.65.79,37.63,37.63,0,0,1-14.16-2.6,32.09,32.09,0,0,1-11.12-7.29,33.64,33.64,0,0,1-7.22-11.12,39.42,39.42,0,0,1,0-28.16,33.44,33.44,0,0,1,7.22-11.12,32.11,32.11,0,0,1,11.12-7.3,37.82,37.82,0,0,1,14.16-2.6,38.25,38.25,0,0,1,7.65.8,33.29,33.29,0,0,1,7.44,2.45,30.63,30.63,0,0,1,6.57,4.19,22.64,22.64,0,0,1,5.06,6h.28V448H793V557.21h-8.67Zm.87-21.66A26.4,26.4,0,0,0,783,513.23a27.13,27.13,0,0,0-5.93-8.66,28.25,28.25,0,0,0-8.81-5.85,27.47,27.47,0,0,0-11-2.17,26.8,26.8,0,0,0-11,2.17,25.38,25.38,0,0,0-8.38,5.85,24.72,24.72,0,0,0-5.27,8.66,32.2,32.2,0,0,0,0,21.23,24.76,24.76,0,0,0,5.27,8.67,25.67,25.67,0,0,0,8.38,5.85,27,27,0,0,0,11,2.17,27.64,27.64,0,0,0,11-2.17,28.61,28.61,0,0,0,8.81-5.85,27.18,27.18,0,0,0,5.93-8.67A26.39,26.39,0,0,0,785.2,523.85Z" transform="translate(-73.11 -448.02)"/><path class="cls-1" d="M873.16,544.65a29.23,29.23,0,0,1-12.49,11,39.7,39.7,0,0,1-16.4,3.32,35.44,35.44,0,0,1-13.86-2.6,31.17,31.17,0,0,1-10.69-7.29,32,32,0,0,1-6.86-11.12,40.62,40.62,0,0,1-2.38-14.23,38.1,38.1,0,0,1,2.45-13.86,33.19,33.19,0,0,1,6.93-11,32.35,32.35,0,0,1,24-10,32.21,32.21,0,0,1,13.5,2.67,29.7,29.7,0,0,1,9.83,7.08,30.1,30.1,0,0,1,6,10,33.48,33.48,0,0,1,2,11.41V526h-56a29.76,29.76,0,0,0,1.08,7,24.82,24.82,0,0,0,4,8.3,25.16,25.16,0,0,0,7.72,6.94q4.85,2.88,12.5,2.89A27.88,27.88,0,0,0,857.27,548a23.14,23.14,0,0,0,9.53-8.67Zm-6.65-26.44a19.73,19.73,0,0,0-1.8-8.37A22.45,22.45,0,0,0,859.8,503a23.42,23.42,0,0,0-7.37-4.7,23.82,23.82,0,0,0-9-1.73,22.09,22.09,0,0,0-11.78,2.89,25.69,25.69,0,0,0-7.43,6.64,26.5,26.5,0,0,0-3.9,7.3,19.46,19.46,0,0,0-1.16,4.83Z" transform="translate(-73.11 -448.02)"/><path class="cls-1" d="M890.78,523.85a37.26,37.26,0,0,1,2.6-14.08,33.44,33.44,0,0,1,7.22-11.12,32.11,32.11,0,0,1,11.12-7.3,37.82,37.82,0,0,1,14.16-2.6,37.29,37.29,0,0,1,14.08,2.6,32.7,32.7,0,0,1,18.41,18.42,39.42,39.42,0,0,1,0,28.16A32.64,32.64,0,0,1,940,556.34a37.1,37.1,0,0,1-14.08,2.6,37.63,37.63,0,0,1-14.16-2.6,32.09,32.09,0,0,1-11.12-7.29,33.64,33.64,0,0,1-7.22-11.12A37.26,37.26,0,0,1,890.78,523.85Zm8.66,0a30.75,30.75,0,0,0,1.81,10.61,24.76,24.76,0,0,0,5.27,8.67A25.57,25.57,0,0,0,914.9,549a28.84,28.84,0,0,0,22,0,25.67,25.67,0,0,0,8.38-5.85,24.76,24.76,0,0,0,5.27-8.67,32,32,0,0,0,0-21.23,24.72,24.72,0,0,0-5.27-8.66,25.38,25.38,0,0,0-8.38-5.85,28.84,28.84,0,0,0-22,0,25.27,25.27,0,0,0-8.38,5.85,24.72,24.72,0,0,0-5.27,8.66A30.77,30.77,0,0,0,899.44,523.85Z" transform="translate(-73.11 -448.02)"/><path class="cls-1" d="M600.09,551.14a6.9,6.9,0,1,1,2,4.92A6.69,6.69,0,0,1,600.09,551.14Z" transform="translate(-73.11 -448.02)"/><path class="cls-2" d="M82.29,523,95,501.26H80.43a36.83,36.83,0,0,0-5.25,34.21l7.21-12.28Z" transform="translate(-73.11 -448.02)"/><path class="cls-2" d="M119.37,546.74H98.24l7.69,13.2a38.61,38.61,0,0,0,4,.22,36.77,36.77,0,0,0,28.45-13.42h-19Z" transform="translate(-73.11 -448.02)"/><path class="cls-2" d="M100.91,499.28h20.52l-7.37-12.6a36.8,36.8,0,0,0-32,12.6h18.88Z" transform="translate(-73.11 -448.02)"/><path class="cls-2" d="M134.13,529.06,125,544.76h15a36.86,36.86,0,0,0,4.77-33.82l-10.36,18.24Z" transform="translate(-73.11 -448.02)"/><path class="cls-2" d="M123.82,499.28,136.6,521.2l7.16-12.62a36.87,36.87,0,0,0-27.2-21.53l7.16,12.23Z" transform="translate(-73.11 -448.02)"/><path class="cls-2" d="M93.18,541.69l-9.65-16.54-7.44,12.68a36.91,36.91,0,0,0,27.34,21.74L93.05,541.76Z" transform="translate(-73.11 -448.02)"/></svg>