<?xml version="1.0" standalone="no"?>
<!DOCTYPE svg PUBLIC "-//W3C//DTD SVG 20010904//EN"
 "http://www.w3.org/TR/2001/REC-SVG-20010904/DTD/svg10.dtd">
<svg version="1.0" xmlns="http://www.w3.org/2000/svg"
 width="4051.000000pt" height="4051.000000pt" viewBox="0 0 4051.000000 4051.000000"
 preserveAspectRatio="xMidYMid meet">
<metadata>
Created by potrace 1.11, written by Peter Selinger 2001-2013
</metadata>
<g transform="translate(0.000000,4051.000000) scale(0.100000,-0.100000)"
fill="#000000" stroke="none">
<path d="M20047 40504 c-1 -1 -126 -5 -277 -8 -334 -8 -501 -15 -750 -31 -36
-2 -110 -7 -165 -10 -55 -4 -118 -8 -140 -10 -22 -2 -76 -6 -120 -10 -44 -3
-100 -8 -125 -10 -25 -2 -76 -7 -115 -10 -38 -3 -81 -7 -95 -10 -14 -2 -59 -7
-100 -10 -41 -3 -88 -8 -105 -10 -16 -2 -55 -7 -85 -10 -30 -3 -68 -7 -85 -9
-16 -2 -59 -7 -95 -11 -36 -4 -72 -8 -80 -10 -8 -1 -40 -6 -71 -9 -31 -4 -66
-8 -76 -10 -11 -3 -44 -7 -74 -11 -30 -3 -110 -15 -179 -25 -69 -10 -143 -21
-165 -24 -22 -3 -51 -8 -65 -11 -13 -2 -42 -7 -65 -10 -63 -9 -93 -14 -210
-35 -60 -11 -126 -22 -145 -25 -19 -3 -93 -17 -165 -31 -71 -14 -139 -27 -150
-29 -18 -3 -78 -14 -155 -29 -14 -3 -68 -15 -120 -26 -52 -11 -106 -23 -120
-26 -14 -3 -95 -21 -180 -41 -204 -47 -322 -73 -340 -78 -8 -2 -53 -13 -100
-25 -47 -12 -92 -23 -100 -25 -64 -13 -587 -159 -770 -215 -74 -22 -139 -42
-145 -44 -134 -36 -1011 -332 -1105 -373 -8 -3 -19 -7 -25 -8 -8 -2 -110 -42
-180 -70 -11 -4 -24 -9 -30 -10 -5 -2 -127 -50 -270 -108 -346 -140 -622 -259
-930 -402 -38 -18 -101 -47 -140 -64 -38 -18 -77 -36 -85 -42 -8 -5 -22 -12
-30 -15 -28 -11 -554 -274 -645 -322 -278 -148 -559 -302 -730 -402 -49 -29
-99 -58 -110 -64 -178 -101 -577 -349 -875 -545 -96 -63 -183 -120 -192 -126
-9 -5 -43 -28 -75 -50 -32 -22 -102 -71 -155 -107 -187 -130 -289 -203 -548
-395 -241 -179 -667 -511 -716 -557 -6 -6 -29 -24 -50 -41 -35 -27 -283 -235
-310 -260 -7 -5 -38 -32 -70 -60 -82 -70 -305 -266 -330 -290 -11 -11 -60 -56
-109 -100 -331 -299 -942 -905 -1210 -1200 -68 -75 -182 -201 -204 -224 -69
-75 -276 -314 -279 -322 -2 -5 4419 -9 10812 -9 5949 0 10816 3 10816 6 0 3
-39 72 -86 153 -48 80 -103 173 -122 206 -19 33 -42 71 -51 85 -8 14 -16 27
-16 30 0 3 -23 43 -52 90 -28 47 -59 99 -69 117 -105 180 -177 304 -224 383
-31 52 -68 115 -82 140 -14 25 -126 216 -248 425 -123 209 -234 400 -248 425
-14 25 -40 69 -59 98 -18 29 -33 54 -33 56 0 3 -21 40 -47 83 -48 82 -273 465
-304 520 -10 17 -29 50 -43 72 -15 22 -26 43 -26 46 0 4 -13 26 -30 50 -16 24
-30 46 -30 49 0 3 -26 50 -58 103 -46 78 -196 333 -242 413 -32 55 -121 206
-191 325 -45 77 -90 155 -101 173 -10 18 -82 142 -160 275 -250 429 -579 992
-740 1267 -28 47 -58 99 -68 115 -49 85 -320 547 -532 910 -74 127 -145 249
-158 271 l-22 42 -79 7 c-44 3 -90 8 -102 10 -12 2 -53 6 -92 10 -38 3 -88 8
-110 10 -22 2 -71 7 -110 10 -38 3 -92 8 -120 10 -54 5 -171 14 -275 20 -36 2
-99 7 -140 9 -78 6 -228 14 -385 21 -217 10 -1032 25 -1038 19z"/>
<path d="M23916 40093 c48 -83 51 -88 102 -170 17 -30 32 -55 32 -57 0 -4 98
-172 203 -349 26 -43 47 -80 47 -82 0 -1 29 -51 65 -110 36 -59 65 -108 65
-110 0 -1 57 -99 126 -216 69 -118 136 -232 149 -254 12 -22 69 -119 125 -215
56 -96 111 -189 120 -206 10 -17 64 -110 121 -205 56 -96 111 -190 121 -209
34 -60 159 -272 199 -338 22 -35 39 -65 39 -68 0 -3 16 -30 35 -60 19 -30 35
-56 35 -59 0 -2 33 -60 73 -127 40 -68 111 -188 158 -268 46 -79 89 -152 94
-161 6 -9 21 -36 35 -60 31 -55 -7 9 365 -625 176 -301 331 -565 344 -588 13
-22 46 -79 74 -126 27 -47 61 -105 75 -130 14 -25 52 -90 84 -145 32 -55 64
-109 70 -120 7 -11 41 -69 76 -130 36 -60 87 -148 115 -195 27 -47 57 -98 67
-115 10 -16 39 -66 64 -110 532 -916 602 -1030 632 -1033 27 -3 45 -30 254
-389 124 -212 236 -404 249 -427 13 -22 48 -84 79 -136 31 -52 62 -106 70
-119 7 -13 37 -65 66 -115 66 -111 459 -785 492 -843 13 -23 54 -93 90 -155
37 -62 91 -155 121 -206 30 -52 140 -241 245 -420 105 -180 206 -352 223 -382
18 -30 65 -111 105 -180 40 -68 81 -138 90 -155 20 -35 263 -450 360 -615 37
-63 97 -167 134 -230 37 -63 71 -122 76 -130 9 -14 148 -252 483 -830 88 -151
163 -279 167 -285 4 -5 19 -30 32 -55 14 -25 80 -138 146 -252 67 -113 132
-224 144 -246 51 -88 180 -308 189 -322 26 -42 229 -393 229 -397 0 -2 12 -22
27 -46 23 -37 259 -440 335 -572 16 -27 33 -57 38 -65 12 -18 122 -208 155
-265 12 -22 100 -173 195 -335 95 -162 181 -310 191 -327 11 -18 27 -48 38
-65 25 -44 164 -282 291 -498 56 -96 110 -188 120 -205 74 -129 128 -221 144
-248 10 -18 43 -75 73 -127 31 -52 86 -147 123 -210 37 -63 78 -134 91 -156
13 -23 60 -103 104 -178 44 -76 88 -152 99 -169 145 -250 254 -436 316 -542
114 -193 222 -381 245 -423 11 -20 22 -39 25 -42 3 -3 11 -16 18 -29 8 -13 49
-85 93 -159 43 -74 79 -136 79 -138 0 -1 23 -40 51 -86 28 -46 55 -92 61 -103
5 -11 14 -29 21 -40 7 -11 25 -41 41 -67 15 -27 31 -48 34 -48 4 0 59 91 122
203 63 111 155 274 205 362 89 156 423 745 463 815 10 19 64 114 119 210 55
96 111 195 125 220 44 79 68 121 173 305 56 99 115 203 130 230 16 28 39 67
52 87 12 21 23 40 23 43 0 3 22 43 48 88 27 45 91 156 142 247 51 91 109 194
130 230 21 36 96 169 168 295 71 127 139 246 150 265 12 19 27 46 35 60 7 14
64 115 127 225 62 110 184 326 272 480 87 154 162 287 168 295 5 8 27 47 48
85 21 39 85 151 142 250 94 165 277 487 338 595 14 25 61 107 104 184 44 76
90 157 102 180 13 22 60 106 106 186 46 80 92 161 103 180 10 19 91 161 178
315 87 155 159 286 159 293 0 12 -97 232 -177 401 -25 53 -56 121 -70 151 -98
216 -503 1007 -569 1112 -13 21 -24 40 -24 42 0 7 -266 471 -306 533 -19 29
-34 55 -34 57 0 8 -384 625 -412 661 -4 6 -73 108 -153 228 -80 119 -164 244
-187 277 -24 32 -83 116 -133 187 -97 136 -392 535 -459 619 -23 28 -54 68
-71 90 -42 54 -260 328 -284 356 -10 13 -79 95 -152 183 -73 88 -135 162 -138
165 -3 3 -48 55 -100 115 -52 61 -99 115 -105 120 -6 6 -65 71 -131 145 -66
74 -141 158 -167 185 -25 28 -68 73 -93 100 -189 204 -602 622 -777 787 -296
280 -424 398 -568 524 -24 21 -54 48 -66 59 -38 35 -77 69 -144 125 -36 30
-67 58 -70 61 -3 3 -79 67 -170 143 -209 175 -188 158 -305 251 -55 44 -102
82 -105 85 -3 3 -45 37 -95 75 -49 38 -92 72 -95 75 -6 7 -424 321 -494 370
-26 19 -61 44 -76 55 -62 44 -198 141 -242 172 -27 18 -71 49 -100 69 -63 44
-471 317 -548 365 -30 20 -68 44 -85 55 -16 10 -38 23 -47 29 -9 5 -63 39
-120 75 -56 36 -110 70 -120 75 -9 6 -72 43 -140 84 -133 80 -311 185 -380
224 -24 13 -95 53 -158 89 -159 90 -277 154 -430 234 -52 27 -97 51 -100 54
-6 7 -587 295 -705 350 -200 94 -270 126 -425 195 -58 25 -118 52 -135 60
-274 123 -869 359 -1290 511 -143 51 -657 223 -683 229 -9 2 -30 9 -47 15 -16
7 -43 16 -60 20 -30 8 -296 87 -390 116 -27 9 -58 18 -67 19 -9 2 -74 20 -145
40 -119 35 -711 186 -778 200 -16 3 -41 8 -55 11 -14 3 -61 14 -105 24 -103
25 -208 48 -243 55 -15 3 -38 7 -52 10 -54 11 -176 36 -200 41 -14 3 -36 7
-50 10 -14 2 -70 13 -125 23 -55 11 -119 22 -142 26 l-42 7 45 -79z"/>
<path d="M4016 32353 c-76 -87 -430 -591 -670 -953 -161 -243 -263 -403 -364
-570 -18 -30 -54 -89 -79 -130 -71 -116 -275 -467 -317 -545 -21 -38 -42 -74
-46 -80 -4 -5 -26 -46 -50 -90 -24 -44 -62 -116 -86 -160 -112 -209 -164 -310
-293 -570 -130 -263 -190 -388 -256 -530 -89 -193 -206 -461 -285 -652 -50
-120 -95 -227 -100 -238 -14 -30 -115 -292 -177 -455 -73 -194 -260 -722 -267
-755 -1 -5 -21 -68 -44 -140 -65 -200 -88 -272 -117 -370 -14 -49 -30 -101
-35 -115 -5 -14 -12 -38 -16 -55 -9 -39 -7 -31 -47 -170 -29 -98 -85 -304
-103 -374 -2 -9 -20 -79 -39 -156 -20 -77 -38 -147 -40 -155 -2 -8 -13 -53
-24 -100 -12 -47 -24 -96 -27 -110 -2 -14 -7 -33 -10 -42 -3 -10 -7 -30 -10
-45 -3 -16 -11 -55 -19 -88 -36 -160 -70 -317 -81 -375 -8 -39 -52 -269 -64
-325 -5 -27 -11 -61 -14 -75 -2 -14 -7 -43 -11 -65 -4 -22 -9 -49 -11 -60 -2
-11 -17 -101 -33 -200 -17 -99 -33 -196 -36 -215 -6 -36 -10 -63 -20 -140 -14
-103 -16 -116 -20 -130 -2 -8 -7 -42 -11 -75 -3 -33 -8 -68 -10 -79 -2 -10 -6
-44 -9 -75 -4 -31 -8 -67 -10 -81 -5 -34 -15 -107 -20 -150 -4 -43 -14 -120
-21 -179 -3 -25 -7 -70 -10 -100 -2 -31 -6 -69 -8 -86 -3 -16 -8 -66 -11 -110
-4 -44 -8 -91 -10 -105 -2 -14 -7 -70 -10 -125 -4 -55 -8 -113 -10 -128 -2
-16 -7 -74 -10 -130 -4 -56 -8 -127 -10 -157 -3 -30 -7 -109 -10 -175 -4 -66
-8 -147 -10 -180 -24 -392 -24 -1473 0 -1855 3 -41 7 -124 10 -185 7 -138 19
-330 30 -455 2 -30 7 -89 10 -130 4 -41 8 -91 10 -110 2 -19 6 -69 10 -110 3
-41 8 -89 10 -105 2 -17 6 -61 10 -99 3 -38 8 -83 10 -100 2 -17 6 -53 9 -81
11 -98 27 -230 31 -255 2 -14 6 -47 10 -75 6 -47 11 -87 20 -145 2 -14 7 -52
11 -85 3 -33 8 -62 9 -65 2 -3 6 -33 10 -65 3 -33 8 -67 10 -75 3 -8 9 -46 15
-85 5 -38 12 -80 14 -91 2 -12 7 -39 10 -60 6 -38 40 -237 51 -299 3 -16 13
-66 21 -110 8 -44 17 -91 20 -105 5 -27 21 -110 29 -150 3 -14 10 -47 15 -75
37 -185 113 -523 181 -800 96 -391 179 -693 307 -1115 70 -229 230 -711 240
-722 6 -6 204 324 311 516 18 34 40 68 47 77 8 8 14 18 14 22 0 3 26 50 58
104 74 123 293 496 320 544 11 20 39 67 61 104 23 37 41 69 41 72 0 3 8 17 19
31 10 15 27 43 37 62 31 56 135 232 155 262 11 15 19 29 19 32 0 3 26 49 59
103 32 54 67 114 78 133 11 19 51 87 88 150 37 63 78 133 90 155 13 22 51 87
85 145 60 100 87 146 163 278 19 31 119 201 222 377 104 176 201 343 217 370
16 28 33 57 38 65 10 15 71 120 135 230 18 30 77 132 132 225 221 375 717
1222 733 1250 16 28 298 507 337 573 24 40 82 139 103 177 10 17 52 88 94 159
42 70 76 129 76 131 0 1 25 44 55 94 30 51 55 96 55 101 0 4 4 10 8 12 5 2 32
45 61 96 l53 92 -27 46 -27 46 23 42 c12 22 61 106 107 186 47 80 126 215 175
300 137 235 397 681 418 715 10 17 24 41 32 55 20 37 37 65 232 400 98 168
186 318 194 333 9 16 21 36 26 45 13 22 109 185 195 332 87 149 830 1423 861
1475 24 42 144 248 259 445 270 463 350 599 367 630 11 19 51 87 88 150 38 63
78 133 90 155 13 22 91 157 175 300 84 143 174 296 199 340 74 127 822 1408
832 1425 17 28 235 405 261 450 14 25 126 216 248 425 122 209 256 439 297
510 42 72 119 204 173 295 53 91 139 237 190 325 51 88 123 212 160 275 85
145 809 1386 945 1620 56 96 172 296 258 443 86 148 157 271 157 275 0 4
-1796 7 -3992 7 -3139 0 -3994 -3 -4002 -12z"/>
<path d="M17980 20218 l0 -7126 3705 3705 c2038 2038 3705 3709 3705 3713 0 5
-4 10 -9 12 -5 2 -64 54 -131 117 -66 63 -131 123 -142 133 -11 9 -65 59 -121
110 -55 51 -112 104 -127 118 -205 188 -284 261 -385 355 -42 39 -238 220
-249 230 -57 52 -244 223 -256 235 -8 8 -67 62 -130 120 -63 58 -124 114 -135
125 -12 11 -63 58 -114 105 -52 47 -106 96 -121 110 -15 14 -73 68 -130 120
-57 52 -120 111 -141 130 -20 19 -76 71 -125 115 -48 44 -101 94 -119 110 -17
17 -80 75 -140 130 -60 55 -119 109 -131 120 -11 11 -62 58 -113 104 -50 46
-109 100 -130 120 -69 64 -228 211 -337 310 -32 30 -108 99 -168 155 -129 120
-158 146 -222 205 -27 25 -78 72 -114 105 -92 86 -261 241 -286 263 -12 10
-77 70 -145 133 -68 63 -148 138 -178 165 -30 28 -66 61 -81 75 -14 14 -73 68
-130 120 -57 52 -118 109 -136 126 -18 17 -63 58 -101 92 -37 33 -91 82 -118
109 -28 26 -93 86 -144 133 -51 47 -110 101 -131 120 -21 19 -74 69 -119 110
-45 41 -99 91 -119 110 -21 19 -89 82 -152 140 -63 58 -143 132 -179 165 -35
33 -72 67 -81 75 -39 36 -140 129 -200 184 -36 34 -113 104 -170 156 -57 52
-136 125 -174 161 -92 86 -176 163 -202 186 -21 18 -194 178 -258 238 -18 17
-79 73 -136 125 -57 52 -116 106 -130 120 -15 14 -74 68 -131 121 -57 54 -107
100 -111 105 -5 4 -8 -3199 -8 -7118z"/>
<path d="M39265 26943 c-33 -59 -72 -127 -86 -152 -14 -25 -94 -165 -176 -311
-83 -146 -160 -281 -171 -300 -119 -209 -212 -374 -212 -377 0 -3 -8 -17 -18
-31 -11 -15 -32 -52 -49 -82 -17 -30 -53 -95 -82 -144 -28 -49 -51 -90 -51
-92 0 -1 -20 -37 -45 -78 -25 -42 -45 -79 -45 -82 0 -2 -11 -21 -23 -42 -13
-20 -56 -93 -95 -162 -80 -142 -75 -134 -212 -375 -233 -411 -274 -482 -298
-525 -34 -60 -305 -538 -539 -950 -105 -184 -199 -351 -210 -370 -11 -19 -78
-136 -148 -260 -70 -124 -139 -245 -153 -270 -13 -25 -28 -49 -32 -55 -4 -5
-21 -35 -37 -66 -17 -31 -77 -137 -133 -235 -57 -99 -113 -197 -125 -219 -18
-34 -47 -84 -173 -305 -37 -65 -195 -344 -257 -455 -87 -154 -98 -173 -134
-233 -17 -29 -31 -55 -31 -57 0 -3 -18 -34 -40 -70 -22 -36 -40 -67 -40 -69 0
-3 -23 -44 -51 -93 -83 -143 -390 -683 -422 -743 -16 -30 -36 -62 -43 -71 -8
-8 -14 -19 -14 -23 0 -3 -45 -85 -100 -181 -55 -96 -100 -179 -100 -185 0 -5
-4 -10 -10 -10 -5 0 -10 -4 -10 -10 0 -5 -20 -44 -45 -86 -25 -41 -45 -77 -45
-79 0 -1 -28 -51 -63 -111 -35 -60 -79 -138 -99 -174 -20 -36 -95 -168 -167
-294 -72 -126 -131 -231 -131 -233 0 -2 -10 -20 -23 -41 -13 -20 -37 -62 -54
-92 -16 -30 -40 -72 -52 -92 -11 -21 -31 -55 -42 -75 -12 -21 -56 -99 -99
-173 -42 -74 -89 -157 -105 -185 -93 -168 -290 -514 -304 -535 -10 -14 -20
-33 -24 -43 -6 -17 -10 -16 -54 9 -27 15 -54 32 -60 37 -9 6 -15 3 -20 -9 -4
-11 -22 -42 -40 -71 -18 -29 -33 -57 -33 -63 0 -5 -5 -10 -10 -10 -6 0 -9 -3
-8 -7 1 -5 -5 -19 -14 -33 -9 -14 -49 -81 -89 -150 -40 -69 -126 -217 -192
-330 -66 -113 -131 -225 -145 -250 -13 -25 -35 -61 -48 -80 -12 -19 -35 -58
-51 -86 -31 -55 -108 -190 -123 -214 -26 -42 -87 -147 -93 -160 -4 -8 -17 -31
-29 -50 -12 -19 -31 -52 -42 -72 -12 -20 -43 -74 -70 -119 -27 -46 -56 -97
-66 -113 -73 -126 -120 -207 -143 -243 -15 -24 -27 -45 -27 -47 0 -2 -75 -132
-166 -288 -249 -423 -270 -460 -288 -493 -9 -16 -30 -51 -46 -77 -16 -26 -42
-71 -59 -100 -16 -29 -63 -111 -105 -181 -42 -71 -76 -130 -76 -133 0 -2 -17
-33 -39 -67 -21 -34 -80 -134 -131 -222 -51 -88 -100 -171 -108 -185 -9 -14
-15 -28 -14 -32 1 -5 -3 -8 -8 -8 -6 0 -10 -4 -10 -9 0 -6 -190 -336 -340
-591 -5 -8 -55 -94 -111 -190 -56 -96 -119 -203 -141 -237 -21 -34 -38 -65
-38 -67 0 -4 -119 -208 -190 -326 -5 -8 -34 -60 -66 -115 -57 -100 -176 -302
-199 -340 -7 -11 -12 -24 -13 -29 0 -5 -4 -12 -9 -15 -4 -3 -13 -15 -19 -26
-30 -55 -40 -71 -47 -76 -5 -3 -7 -8 -6 -10 2 -2 -4 -15 -13 -29 -15 -25 -109
-186 -263 -450 -43 -74 -97 -166 -120 -205 -23 -38 -52 -88 -64 -110 -12 -22
-35 -61 -51 -87 -16 -26 -43 -73 -61 -105 -18 -32 -58 -101 -89 -153 -31 -52
-123 -210 -205 -350 -81 -140 -155 -266 -164 -280 -8 -14 -14 -28 -13 -33 1
-4 -3 -7 -8 -7 -6 0 -10 -4 -10 -9 0 -5 -59 -109 -131 -232 -72 -123 -146
-251 -166 -284 -19 -33 -38 -67 -43 -75 -55 -93 -170 -290 -170 -293 0 -1
1849 -2 4110 -2 l4109 0 48 65 c114 157 383 555 528 780 26 41 63 98 80 125
198 308 507 836 715 1220 184 339 532 1040 587 1180 9 22 19 45 23 50 20 27
281 638 387 905 14 36 36 90 49 121 13 31 24 59 24 62 0 3 5 18 12 34 6 15 12
33 13 38 2 6 13 35 25 65 24 59 160 428 164 445 2 6 6 17 9 25 28 68 184 550
262 805 35 117 116 393 119 410 1 6 10 36 19 67 18 60 135 507 143 545 4 19
51 218 89 378 8 33 16 71 19 85 2 14 9 43 14 65 6 22 13 54 16 70 2 17 14 73
25 125 11 52 22 106 25 120 2 14 14 72 25 130 11 58 23 120 26 139 3 19 7 37
9 40 2 3 7 29 10 56 4 28 9 57 11 65 2 8 6 31 9 50 6 40 12 73 26 145 5 28 12
68 15 90 3 22 7 47 10 55 2 8 6 38 10 65 3 28 10 75 15 105 5 30 12 78 15 105
4 28 8 57 10 65 2 8 7 40 10 70 3 30 10 80 15 110 5 30 14 99 20 154 7 54 13
106 15 115 1 9 6 50 10 91 4 41 9 84 11 95 2 11 6 49 9 85 3 36 8 80 10 98 3
18 7 60 10 95 3 34 7 82 10 107 7 65 14 154 20 240 3 41 7 98 10 125 12 129
27 386 41 725 16 359 9 1516 -10 1800 -2 30 -7 111 -11 180 -3 69 -8 148 -10
175 -2 28 -6 88 -10 135 -5 82 -9 122 -19 240 -3 30 -8 91 -12 135 -3 44 -8
87 -9 96 -2 9 -6 52 -10 95 -4 43 -8 90 -10 104 -2 14 -7 52 -10 85 -3 33 -8
76 -10 95 -3 19 -7 58 -11 85 -3 28 -7 61 -9 75 -2 14 -7 52 -11 85 -3 33 -8
67 -9 76 -2 9 -6 40 -10 70 -3 30 -10 79 -15 109 -6 30 -12 73 -15 95 -7 61
-35 244 -45 300 -5 28 -12 66 -14 85 -3 19 -8 49 -11 65 -3 17 -7 44 -10 60
-3 17 -7 41 -10 55 -5 24 -18 99 -30 165 -2 17 -7 41 -10 55 -3 14 -9 50 -15
80 -14 76 -14 75 -53 265 -20 94 -38 181 -40 195 -3 14 -17 77 -32 140 -15 63
-29 128 -32 144 -7 42 -137 561 -177 706 -30 113 -45 165 -105 380 -10 36 -35
119 -56 185 -20 66 -38 125 -39 130 -1 6 -9 33 -18 60 -175 536 -242 737 -256
761 -5 9 -29 -25 -67 -93z"/>
<path d="M5713 19223 c-4 -10 -30 -56 -59 -103 -45 -74 -105 -176 -154 -262
-8 -14 -58 -99 -110 -187 -52 -89 -99 -170 -105 -179 -14 -25 -184 -314 -195
-332 -13 -20 -164 -280 -208 -355 -19 -33 -42 -72 -51 -87 -16 -26 -114 -194
-160 -272 -12 -23 -42 -72 -65 -111 -23 -38 -45 -77 -49 -85 -4 -8 -18 -33
-32 -55 -14 -22 -30 -49 -35 -60 -6 -11 -19 -33 -29 -50 -19 -32 -242 -409
-271 -460 -9 -16 -63 -108 -119 -204 -57 -95 -111 -188 -121 -205 -9 -17 -39
-67 -65 -111 -26 -44 -56 -93 -65 -110 -9 -16 -29 -50 -44 -75 -14 -25 -44
-76 -67 -115 -22 -38 -71 -122 -108 -185 -181 -308 -240 -408 -259 -440 -11
-19 -63 -109 -117 -200 -53 -91 -107 -183 -120 -205 -33 -57 -544 -928 -625
-1065 -37 -63 -77 -131 -88 -150 -11 -19 -48 -82 -82 -140 -35 -58 -77 -130
-93 -160 -16 -30 -35 -62 -41 -70 -6 -8 -17 -26 -25 -40 -8 -14 -75 -128 -149
-255 -338 -576 -362 -617 -362 -622 0 -3 13 -34 30 -70 16 -35 30 -66 30 -68
0 -4 187 -415 253 -557 54 -114 316 -638 356 -712 15 -28 56 -105 91 -171 145
-276 512 -905 717 -1230 217 -345 588 -888 823 -1205 107 -145 131 -176 137
-185 5 -5 31 -39 58 -75 180 -238 628 -792 773 -955 15 -17 59 -66 97 -110 80
-91 70 -79 155 -176 80 -89 88 -98 208 -229 197 -213 264 -282 577 -595 316
-316 397 -394 589 -570 54 -49 111 -101 126 -115 30 -27 52 -47 180 -160 47
-41 87 -77 90 -80 11 -11 151 -131 275 -236 167 -142 611 -498 740 -594 55
-41 102 -77 105 -80 5 -6 41 -32 260 -193 58 -43 114 -85 125 -93 11 -9 45
-32 75 -53 30 -20 64 -44 74 -54 11 -9 23 -17 27 -17 4 0 14 -6 21 -13 15 -15
358 -250 373 -256 5 -2 12 -7 15 -10 3 -4 75 -52 160 -107 463 -302 965 -602
1385 -829 39 -21 84 -45 100 -55 48 -28 265 -140 475 -247 384 -194 823 -398
1185 -550 72 -30 144 -61 160 -68 17 -8 77 -32 135 -55 58 -23 114 -45 125
-50 11 -5 45 -19 75 -30 75 -30 96 -38 123 -50 12 -5 110 -41 217 -80 107 -40
204 -76 215 -80 52 -23 604 -209 825 -278 107 -34 440 -133 455 -136 6 -1 37
-10 70 -20 263 -79 824 -218 1245 -310 148 -32 672 -136 687 -136 3 0 -5 17
-17 38 -13 20 -48 80 -78 132 -30 52 -63 109 -73 125 -11 17 -23 40 -29 53 -5
12 -18 35 -29 50 -16 22 -471 803 -539 923 -11 20 -41 72 -67 115 -25 43 -51
88 -58 99 -6 11 -54 94 -108 185 -53 91 -129 221 -169 290 -40 69 -128 220
-195 335 -170 291 -660 1130 -828 1420 -122 209 -239 411 -297 510 -132 226
-305 524 -320 549 -9 17 -62 108 -117 201 -55 94 -108 184 -117 200 -9 17 -25
44 -35 60 -10 17 -29 50 -43 75 -14 25 -85 146 -157 269 -72 123 -131 225
-131 227 0 1 -18 32 -41 69 -22 37 -49 82 -58 99 -10 17 -58 99 -106 181 -49
83 -99 170 -113 195 -14 25 -56 96 -94 159 -37 62 -68 115 -68 117 0 2 -27 49
-60 104 -33 55 -60 103 -60 106 0 3 -8 18 -19 32 -10 15 -29 45 -41 67 -43 78
-523 901 -565 970 -24 39 -53 88 -65 110 -12 22 -108 188 -213 368 -106 180
-200 342 -210 360 -14 24 -181 309 -267 457 -5 8 -64 110 -131 225 -67 116
-129 221 -137 235 -9 14 -15 28 -14 33 1 4 -2 7 -7 7 -17 0 -19 39 -2 45 9 3
24 12 34 19 16 12 5 34 -139 282 -87 148 -165 283 -174 299 -9 17 -39 66 -65
110 -49 83 -70 119 -106 183 -12 20 -52 89 -89 152 -37 63 -77 131 -88 150
-10 19 -151 260 -312 535 -308 526 -319 546 -349 598 -10 17 -113 194 -228
392 -116 198 -220 376 -230 395 -11 19 -98 168 -193 330 -95 162 -184 315
-198 340 -14 25 -40 69 -59 98 -18 29 -33 54 -33 56 0 2 -154 266 -341 587
-188 321 -352 602 -364 624 -13 22 -139 238 -280 480 -283 484 -287 491 -314
538 -10 17 -161 277 -336 577 -175 300 -326 559 -335 575 -10 17 -48 82 -85
145 -37 63 -76 129 -86 147 -10 18 -97 167 -194 333 -97 166 -184 315 -194
333 -10 18 -40 68 -66 112 -48 80 -68 116 -105 180 -11 19 -74 128 -141 242
-67 115 -134 229 -148 256 -28 51 -38 57 -48 30z"/>
<path d="M13814 7379 c-2 -3 46 -90 105 -192 60 -103 111 -192 115 -199 3 -7
17 -31 31 -53 14 -22 30 -49 35 -60 6 -11 14 -27 20 -35 5 -8 40 -67 76 -130
37 -63 84 -143 105 -178 22 -35 39 -65 39 -67 0 -4 104 -183 130 -225 6 -8 21
-35 35 -60 14 -25 30 -52 35 -60 8 -12 90 -153 190 -325 32 -55 163 -279 196
-337 44 -76 88 -150 159 -273 32 -55 90 -154 129 -220 39 -66 73 -125 76 -131
4 -8 387 -664 441 -754 10 -17 63 -110 89 -156 10 -16 39 -66 64 -110 26 -43
51 -86 56 -94 27 -45 140 -241 162 -280 14 -25 103 -178 198 -340 95 -162 182
-311 193 -330 10 -19 49 -84 85 -145 36 -60 75 -128 87 -150 12 -22 46 -80 75
-130 29 -49 60 -103 70 -120 22 -38 218 -375 230 -395 68 -114 130 -224 130
-231 0 -5 4 -9 9 -9 5 0 11 -8 15 -17 3 -10 13 -32 23 -48 28 -48 77 -128 90
-150 7 -11 18 -31 25 -45 6 -14 17 -32 24 -40 6 -8 25 -40 41 -70 17 -30 62
-108 99 -173 38 -65 77 -132 87 -150 11 -18 43 -72 72 -122 29 -49 79 -135
111 -190 33 -55 64 -109 71 -120 6 -11 19 -33 27 -50 9 -16 24 -43 35 -60 10
-16 42 -70 70 -120 29 -50 56 -93 60 -97 7 -8 40 -13 141 -23 30 -3 71 -7 90
-10 19 -2 67 -7 105 -10 39 -3 94 -8 123 -10 28 -3 76 -7 105 -10 78 -7 182
-14 277 -20 47 -3 110 -7 140 -10 265 -21 806 -38 1220 -38 288 0 776 9 930
18 30 2 114 6 185 9 72 4 155 8 185 11 30 3 91 7 135 10 86 5 202 14 275 20
25 2 82 7 127 10 46 3 93 8 105 11 13 2 55 6 93 9 39 2 86 6 105 9 61 8 123
15 188 21 35 4 73 8 85 11 12 2 51 7 87 9 36 3 72 8 80 10 8 2 42 7 75 11 33
3 68 8 79 10 10 2 44 6 75 9 31 4 63 8 71 10 8 2 42 7 75 11 33 3 62 8 65 9 3
2 29 6 59 10 30 4 63 9 75 11 12 2 37 6 56 9 19 3 46 7 60 10 14 3 45 8 70 11
25 3 105 17 177 30 73 13 150 27 170 30 21 3 46 7 55 10 22 6 53 12 103 20 22
3 72 12 110 21 39 8 81 17 95 19 53 10 351 74 480 104 74 17 145 33 158 36 30
6 141 33 302 74 69 17 132 33 140 35 8 2 51 13 95 25 44 12 105 28 135 36 234
63 562 161 865 257 296 94 937 321 1050 371 17 7 59 23 95 36 36 13 69 27 75
32 5 4 15 8 23 8 8 0 28 6 45 14 18 8 100 42 182 76 83 34 164 67 180 74 17 8
59 26 95 41 181 77 375 163 644 288 103 47 767 379 871 435 114 61 261 140
300 162 17 9 57 32 90 50 296 164 818 477 1060 634 365 238 683 455 910 620
118 85 400 293 425 313 8 7 69 53 135 104 66 51 134 104 151 118 17 14 48 40
69 56 21 17 80 63 129 103 309 250 511 423 820 702 205 185 196 177 331 303
135 126 700 689 815 813 41 44 107 114 145 155 278 298 780 875 776 894 -1 9
-22051 13 -22057 4z"/>
</g>
</svg>
